<?xml version="1.0" encoding="UTF-8" standalone="no"?>
<!-- Created with Inkscape (http://www.inkscape.org/) -->

<svg
   version="1.1"
   id="svg1"
   width="430.72"
   height="225.28"
   viewBox="0 0 430.72 225.28"
   sodipodi:docname="Logo.svg"
   inkscape:version="1.4.2 (ebf0e940, 2025-05-08)"
   xmlns:inkscape="http://www.inkscape.org/namespaces/inkscape"
   xmlns:sodipodi="http://sodipodi.sourceforge.net/DTD/sodipodi-0.dtd"
   xmlns="http://www.w3.org/2000/svg"
   xmlns:svg="http://www.w3.org/2000/svg">
  <defs
     id="defs1">
    <filter
       style="color-interpolation-filters:sRGB;"
       inkscape:label="Cross-smooth"
       id="filter188"
       x="-0.013735097"
       y="-0.037437175"
       width="1.0274702"
       height="1.0748744">
      <feGaussianBlur
         in="SourceGraphic"
         stdDeviation="1.14"
         result="blur1"
         id="feGaussianBlur186" />
      <feComposite
         in="blur1"
         in2="blur1"
         operator="in"
         result="composite1"
         id="feComposite186" />
      <feComposite
         in="composite1"
         in2="composite1"
         k2="0.68"
         operator="arithmetic"
         result="composite2"
         id="feComposite187" />
      <feColorMatrix
         in="composite2"
         values="1 0 0 0 0 0 1 0 0 0 0 0 1 0 0 0 0 0 10 0 "
         result="colormatrix1"
         id="feColorMatrix187" />
      <feGaussianBlur
         stdDeviation="1"
         result="blur2"
         id="feGaussianBlur187" />
      <feColorMatrix
         in="blur2"
         values="1 0 0 0 0 0 1 0 0 0 0 0 1 0 0 0 0 0 5 -1 "
         result="colormatrix2"
         id="feColorMatrix188" />
      <feBlend
         in="SourceGraphic"
         in2="colormatrix2"
         stdDeviation="17"
         mode="normal"
         result="blend"
         id="feBlend188" />
      <feComposite
         in="blend"
         in2="colormatrix2"
         operator="in"
         result="composite3"
         id="feComposite188" />
    </filter>
  </defs>
  <sodipodi:namedview
     id="namedview1"
     pagecolor="#ffffff"
     bordercolor="#000000"
     borderopacity="0.25"
     inkscape:showpageshadow="2"
     inkscape:pageopacity="0.0"
     inkscape:pagecheckerboard="0"
     inkscape:deskcolor="#d1d1d1"
     inkscape:zoom="1.8359529"
     inkscape:cx="212.69609"
     inkscape:cy="119.01177"
     inkscape:window-width="1424"
     inkscape:window-height="908"
     inkscape:window-x="0"
     inkscape:window-y="35"
     inkscape:window-maximized="0"
     inkscape:current-layer="g179" />
  <g
     inkscape:groupmode="layer"
     inkscape:label="Image"
     id="g1">
    <g
       id="g179">
      <path
         style="fill:#b9b9b9;fill-opacity:1"
         d="m 171.62643,121.33288 c -4.07334,-5.05264 -5.76932,-12.54385 -1.64152,-2.67565 0.13664,0.14078 5.17832,4.0074 1.64152,2.67565 z m 138.31029,-2.39405 c -9.81314,-8.96095 -4.86421,-3.49546 2.99469,0.12841 z m -181.74091,-4.12762 c -14.69303,-1.58461 -3.61606,-2.98049 0,0 z"
         id="path182"
         sodipodi:nodetypes="cccccccc"
         inkscape:export-filename="path182.png"
         inkscape:export-xdpi="96"
         inkscape:export-ydpi="96" />
      <path
         style="fill:#8c8c8c;fill-opacity:1"
         d="m 202.15898,183.42098 c -10.8918,-4.96621 13.10874,0.37113 5.38139,0.15203 l -2.30857,0.13243 z m 160.3354,-4.41654 c 6.33129,-1.75124 12.80868,-4.46612 3.30421,0.47337 1.77762,-1.19737 -5.17276,0.96417 -3.30421,-0.47337 z M 63.114082,55.028893 c 5.763747,-4.828455 13.483549,-5.370447 2.653792,-1.527526 -0.836752,0.595537 -1.722454,1.096205 -2.653792,1.527526 z"
         id="path181"
         sodipodi:nodetypes="cccccccccc" />
      <path
         style="fill:#494949;fill-opacity:1"
         d="m 216.79837,119.93165 c -1.15844,-10.56588 0.96482,-7.22626 0.362,1.41295 z"
         id="path180"
         sodipodi:nodetypes="ccc" />
      <path
         id="path179"
         style="fill:#000000;fill-opacity:1;filter:url(#filter188)"
         d="M 51.859825,48.74564 C 40.917257,48.449757 27.563607,63.50914 40.975059,70.603062 52.891192,80.461593 18.999425,74.915 33.62545,81.864781 46.377913,79.007172 59.460966,71.570124 73.543419,69.259312 c 15.402397,-15.94967 11.521667,13.275226 12.09375,22.28125 -0.565962,14.475078 9.05082,36.139628 -10.886719,39.847658 -14.976493,7.42574 -20.324377,29.10279 -8.125,41.43359 17.272468,15.85393 30.686317,-9.51415 26.046875,-25.37109 -2.001627,-19.86789 22.703025,-5.33715 9.859375,-18.07813 4.93824,-7.89955 3.02996,15.17722 6.77735,18.68164 4.82034,13.63554 6.01162,32.85345 22.26367,37.87695 12.64155,-5.55051 29.81605,0.93324 35.19922,-16.4414 7.56973,2.33604 15.4889,19.4345 25.44921,6.49414 12.14539,-9.78841 5.43179,-37.4393 22.4668,-38.87305 9.75656,10.40542 0.86294,29.52187 11.76367,39.11133 9.06493,-6.17328 -5.33099,-25.98274 4.82813,-35.93164 5.94047,-16.59168 19.13072,-3.70449 17.75,8.7168 -2.59818,12.37115 7.61503,41.80065 22.7207,27.74023 11.92698,-9.03629 2.06242,-35.72776 13.79883,-38.54101 8.63781,10.88297 1.60422,30.79335 13.04102,38.47265 7.89236,-9.81382 -7.17713,-29.09633 4.80859,-40.62305 14.6077,-13.08774 17.13081,18.88963 21.60937,28.26172 6.24254,18.72907 33.60455,11.91377 41.69336,-1.7539 7.35171,-0.44775 26.8688,23.5517 37.12305,8.57031 -2.947,-8.91967 -22.16709,2.58921 -26.9707,-10.22461 -5.68146,-12.44517 -3.59006,-38.11742 -24.25782,-34.45312 -14.5643,4.25886 -19.10475,22.3947 -14.1582,35.43945 -1.03906,17.00614 -12.6601,-7.3045 -12.8418,-14.25586 -1.38535,-11.64681 -11.63589,-30.44973 -24.50781,-17.51953 -3.89807,12.29188 -10.03168,4.44761 -15.2539,-1.64844 -17.51814,1.76815 -8.56863,28.82579 -15.95313,40.6875 -13.55347,10.98593 -15.98772,-15.29965 -16.07422,-24.60742 3.53558,-17.71987 -22.26818,-27.91796 -26.16601,-7.61133 -5.58666,14.30658 -6.75101,-13.68298 -16.22657,-8.09766 -0.64576,0.35745 -1.21253,0.66708 -1.70703,0.93555 0.054,0.16826 -0.65586,0.88907 -2.94336,2.67188 -12.60662,10.34106 -7.14196,36.1499 -24.40234,40.66015 -14.27594,-6.76837 -3.32794,-23.66674 -8.89648,-34.54687 -3.34708,0.90466 -11.80454,3.17129 -16.25196,-4.19532 -12.10094,-6.97708 -21.29631,9.53385 -25.69922,18.60157 -7.50054,8.20385 11.60822,28.45743 -3.07226,23.99023 -8.38422,-11.51234 -12.46271,-26.3043 -16.18945,-40.04297 -5.53908,-16.79658 12.9922,-24.84369 16.7207,-39.183589 6.27395,-12.322096 6.33918,-40.02552 -13.54883,-35.232421 -13.03367,11.497337 -10.89134,31.06378 -8.42969,46.57617 1.60902,12.68595 -11.678278,3.4523 -11.029296,8.89844 -2.480575,11.57303 -4.551714,-6.34547 -3.337891,-4.47071 C 89.643538,96.708441 91.205989,79.408958 89.828575,62.397984 88.967939,41.23872 77.58075,63.471514 69.752403,66.87064 58.375633,73.251816 60.502649,62.665009 60.918419,55.022984 58.886971,50.648151 55.507347,48.844268 51.859825,48.74564 Z m 157.847655,81.0332 c -0.10148,-0.31619 -2.90612,1.3186 -3.02734,1.50781 -5.4e-4,0.001 -0.002,0.005 -0.002,0.006 v 0.002 0.002 l 0.002,0.002 0.002,0.002 h 0.002 l 0.002,0.002 c 0.0905,0.0111 0.88933,-0.36584 3.02148,-1.52344 z M 48.018028,54.228062 c 6.787139,0.303776 14.226261,6.806353 4.507812,14.054688 -4.197911,2.508726 -9.545771,-0.463946 -11.822265,-4.22461 -1.668758,-7.343517 2.670621,-10.037925 7.314453,-9.830078 z m 71.908202,13.634766 c 2.04519,0.0044 4.43482,1.156568 7.1836,3.884765 1.96945,14.250832 -2.93704,30.489647 -13.5918,40.531247 -3.75557,-2.85726 0.0827,-9.91747 -1.92188,-14.279294 -2.92181,-8.590621 -0.53241,-30.155749 8.33008,-30.136718 z m 237.58008,63.429682 c 13.24657,5.31842 8.34368,32.92944 -6.59375,34.95508 h -2.74805 l -1.99414,-0.90234 c -7.16303,-10.77124 -3.51997,-32.22061 11.33594,-34.05274 z M 85.728966,132.3472 c 0.62437,0.0308 1.214446,0.16575 1.755859,0.42774 -0.907862,12.44061 2.126516,27.66694 -5.212891,39.05273 -18.119459,4.78064 -20.181437,-23.23137 -10.080078,-32.18945 -0.130779,0.14212 -0.196686,0.21792 -0.203125,0.23437 v 0.002 c 0.152513,-0.0304 8.250973,-7.79787 13.740235,-7.52734 z m 66.625004,5.89844 c 3.75364,-0.15592 7.19345,2.22848 9.08008,8.66797 12.54773,6.81043 0.32215,26.98385 -11.00196,29.8164 -9.21121,1.95172 -16.45904,-12.23846 -14.3789,-20.34765 0.82552,-8.28167 9.13474,-17.83906 16.30078,-18.13672 z"
         sodipodi:nodetypes="scccccccccccccccccccccccccccccccccccccccccccccccccsccccccccccsccsscccscccccscccccsscccs" />
      <rect
         style="fill:none;fill-opacity:1"
         id="rect188"
         width="400"
         height="200"
         x="16.858395"
         y="17.336258" />
    </g>
  </g>
</svg>
